<?xml version="1.0" encoding="UTF-8" standalone="no"?><!DOCTYPE svg PUBLIC "-//W3C//DTD SVG 1.1//EN" "http://www.w3.org/Graphics/SVG/1.1/DTD/svg11.dtd"><svg width="100%" height="100%" viewBox="0 0 13 13" version="1.1" xmlns="http://www.w3.org/2000/svg" xmlns:xlink="http://www.w3.org/1999/xlink" xml:space="preserve" style="fill-rule:evenodd;clip-rule:evenodd;stroke-linejoin:round;stroke-miterlimit:1.41421;"><g><path d="M3.487,0.82l-0.07,0.021c-0.196,0.06 -0.39,0.133 -0.586,0.222c-0.287,0.131 -0.561,0.29 -0.818,0.475c-0.254,0.183 -0.492,0.391 -0.706,0.622c-0.211,0.226 -0.402,0.476 -0.569,0.746c-0.162,0.264 -0.302,0.547 -0.414,0.85c-0.113,0.302 -0.193,0.608 -0.243,0.914c-0.052,0.313 -0.071,0.627 -0.06,0.937c0.011,0.316 0.054,0.628 0.126,0.932c0.073,0.306 0.176,0.606 0.307,0.894c0.097,0.211 0.208,0.415 0.333,0.609c0.123,0.193 0.261,0.378 0.412,0.552c0.149,0.171 0.312,0.334 0.486,0.484c0.166,0.144 0.345,0.277 0.535,0.399l0.015,0.01c0.126,0.078 0.258,0.15 0.395,0.217c0.137,0.067 0.277,0.127 0.419,0.181c0.483,0.181 1,0.29 1.519,0.326c0.522,0.036 1.046,-0.002 1.542,-0.115c0.354,-0.08 0.692,-0.199 1.003,-0.356c0.298,-0.151 0.57,-0.337 0.807,-0.559c0.02,-0.019 0.046,-0.044 0.078,-0.075c0.504,-0.508 0.782,-1.147 0.815,-1.786c0.032,-0.636 -0.178,-1.271 -0.648,-1.774l-0.001,0c-0.021,-0.023 -0.042,-0.044 -0.063,-0.065l-0.046,-0.045c0,0.037 -0.001,0.074 -0.002,0.11c-0.026,0.785 -0.337,1.497 -0.838,2.035c-0.499,0.535 -1.188,0.896 -1.973,0.98c-0.858,0.091 -1.591,-0.129 -2.169,-0.546c-0.642,-0.462 -1.091,-1.167 -1.311,-1.957c-0.268,-0.967 -0.155,-2.029 0.219,-3.002c0.328,-0.854 0.858,-1.642 1.506,-2.236Z" style="fill:#fff;fill-rule:nonzero;"/><path d="M9.657,3.691c-0.655,-0.61 -1.477,-1.055 -2.296,-1.121c-0.682,-0.055 -1.365,0.155 -1.945,0.758c-0.168,0.182 -0.31,0.392 -0.416,0.616c-0.065,0.139 -0.118,0.282 -0.155,0.429c0.064,-0.035 0.129,-0.067 0.195,-0.097c0.192,-0.088 0.393,-0.157 0.599,-0.205c0.204,-0.049 0.415,-0.077 0.629,-0.085c0.209,-0.007 0.42,0.006 0.63,0.04c0.205,0.033 0.409,0.087 0.61,0.162c0.201,0.074 0.391,0.168 0.568,0.277c0.181,0.113 0.35,0.242 0.502,0.384c0.39,0.363 0.675,0.802 0.844,1.282c0.169,0.482 0.222,1.005 0.146,1.534c-0.044,0.312 -0.122,0.601 -0.229,0.868c-0.399,0.992 -1.197,1.675 -2.156,2.073c-0.952,0.394 -2.063,0.507 -3.1,0.36c-0.331,-0.047 -0.656,-0.121 -0.965,-0.221c0.033,0.031 0.066,0.061 0.099,0.089c0.214,0.187 0.447,0.357 0.698,0.507c0.244,0.145 0.506,0.271 0.784,0.374c0.302,0.113 0.608,0.194 0.914,0.243c0.314,0.052 0.628,0.071 0.937,0.06c0.316,-0.011 0.628,-0.054 0.932,-0.126c0.307,-0.072 0.606,-0.175 0.895,-0.307c0.286,-0.131 0.561,-0.29 0.818,-0.475c0.254,-0.183 0.491,-0.391 0.705,-0.621c0.4,-0.43 0.709,-0.917 0.924,-1.439c0.22,-0.532 0.342,-1.101 0.361,-1.678c0.023,-0.691 -0.106,-1.376 -0.367,-2.005c-0.261,-0.63 -0.655,-1.205 -1.161,-1.676Z" style="fill:#fff;fill-rule:nonzero;"/><path d="M11.874,6.152c0.033,-0.131 0.06,-0.261 0.082,-0.392c0.051,-0.314 0.07,-0.628 0.059,-0.937c-0.011,-0.317 -0.054,-0.629 -0.126,-0.932c-0.073,-0.307 -0.176,-0.607 -0.308,-0.895c-0.13,-0.286 -0.29,-0.561 -0.474,-0.818c-0.183,-0.254 -0.391,-0.491 -0.622,-0.706c-0.227,-0.211 -0.476,-0.402 -0.747,-0.569c-0.263,-0.162 -0.547,-0.301 -0.849,-0.414c-0.302,-0.113 -0.608,-0.193 -0.914,-0.243c-0.313,-0.052 -0.627,-0.071 -0.936,-0.06c-0.317,0.011 -0.629,0.054 -0.933,0.126c-0.306,0.073 -0.606,0.176 -0.894,0.308c-0.287,0.13 -0.561,0.29 -0.818,0.474c-0.255,0.183 -0.492,0.391 -0.706,0.622c-0.492,0.528 -0.899,1.251 -1.119,2.018c-0.199,0.693 -0.245,1.421 -0.06,2.068c0.041,0.144 0.091,0.282 0.151,0.416c0.246,0.554 0.643,1.011 1.133,1.284c0.485,0.271 1.064,0.362 1.676,0.187c0.029,-0.008 0.058,-0.017 0.087,-0.026c-0.434,-0.251 -0.795,-0.58 -1.061,-0.97c-0.309,-0.454 -0.491,-0.992 -0.512,-1.588c-0.007,-0.209 0.005,-0.42 0.039,-0.63c0.034,-0.205 0.087,-0.409 0.162,-0.611c0.075,-0.2 0.169,-0.39 0.278,-0.567c0.112,-0.182 0.241,-0.35 0.383,-0.502c0.145,-0.156 0.305,-0.297 0.476,-0.42c0.172,-0.124 0.356,-0.231 0.547,-0.318c0.197,-0.09 0.398,-0.159 0.602,-0.208c0.207,-0.049 0.415,-0.077 0.624,-0.085c0.526,-0.018 1.061,0.112 1.563,0.332c0.576,0.252 1.109,0.622 1.535,1.018c0.27,0.252 0.513,0.528 0.726,0.824c0.215,0.299 0.4,0.618 0.552,0.95c0.108,0.236 0.199,0.479 0.273,0.728c0.052,0.175 0.096,0.355 0.131,0.536Z" style="fill:#fff;fill-rule:nonzero;"/></g></svg>